{
	"asset":{
		"version":"2.0",
		"generator":"Houdini GLTF 2.0 Exporter"
	},
	"accessors":[
		{
			"bufferView":0,
			"componentType":5123,
			"count":14700,
			"type":"SCALAR",
			"min":[0
			],
			"max":[2622
			]
		},
		{
			"bufferView":1,
			"componentType":5126,
			"count":2623,
			"type":"VEC3",
			"min":[-0.0999999717,0,-0.0998026431
			],
			"max":[0.0999999717,0.909999847,0.0998026431
			]
		},
		{
			"bufferView":2,
			"componentType":5126,
			"count":2623,
			"type":"VEC3",
			"min":[0,0,0
			],
			"max":[1,1,1
			]
		},
		{
			"bufferView":3,
			"componentType":5126,
			"count":2623,
			"type":"VEC4",
			"min":[-0.998050392,-0.00683111791,-1,1
			],
			"max":[1,0.0068311193,1,1
			]
		},
		{
			"bufferView":4,
			"componentType":5126,
			"count":2623,
			"type":"VEC3",
			"min":[-0.99401629,0.109232113,-0.99205488
			],
			"max":[0.99401629,0.10923288,0.99205488
			]
		},
		{
			"bufferView":5,
			"componentType":5126,
			"count":2623,
			"type":"VEC2",
			"min":[0,0
			],
			"max":[1.01999998,0.931136668
			]
		}
	],
	"buffers":[
		{
			"uri":"Flame_Model_data.bin",
			"byteLength":186780,
			"name":"main_buffer"
		}
	],
	"bufferViews":[
		{
			"buffer":0,
			"byteLength":29400,
			"target":34963
		},
		{
			"buffer":0,
			"byteOffset":29400,
			"byteLength":31476,
			"target":34962
		},
		{
			"buffer":0,
			"byteOffset":60876,
			"byteLength":31476,
			"target":34962
		},
		{
			"buffer":0,
			"byteOffset":92352,
			"byteLength":41968,
			"target":34962
		},
		{
			"buffer":0,
			"byteOffset":134320,
			"byteLength":31476,
			"target":34962
		},
		{
			"buffer":0,
			"byteOffset":165796,
			"byteLength":20984,
			"target":34962
		}
	],
	"nodes":[
		{
			"name":"geo1",
			"mesh":0
		}
	],
	"meshes":[
		{
			"primitives":[
				{
					"attributes":{
						"TEXCOORD_0":5,
						"TANGENT":3,
						"COLOR_0":2,
						"POSITION":1,
						"NORMAL":4
					},
					"indices":0
				}
			],
			"name":"Flame_Mesh"
		}
	],
	"scenes":[
		{
			"nodes":[0
			]
		}
	],
	"scene":0
}
