<?xml version="1.0" encoding="UTF-8"?>
<svg id="Calque_1" data-name="Calque 1" xmlns="http://www.w3.org/2000/svg" xmlns:xlink="http://www.w3.org/1999/xlink" viewBox="0 0 264.98 115.24">
  <defs>
    <style>
      .cls-1 {
        fill: #d8b239;
        filter: url(#drop-shadow-2);
        stroke: #fff;
        stroke-miterlimit: 10;
        stroke-width: 4px;
      }

      .cls-2, .cls-3 {
        fill: #fff;
      }

      .cls-3 {
        filter: url(#drop-shadow-3);
      }

      .cls-4 {
        filter: url(#drop-shadow-4);
        opacity: .6;
      }

      .cls-5 {
        fill: #296d67;
      }
    </style>
    <filter id="drop-shadow-2" x="0" y="0" width="264.98" height="115.24" filterUnits="userSpaceOnUse">
      <feOffset dx="1" dy="1"/>
      <feGaussianBlur result="blur" stdDeviation="0"/>
      <feFlood flood-color="#000" flood-opacity=".3"/>
      <feComposite in2="blur" operator="in"/>
      <feComposite in="SourceGraphic"/>
    </filter>
    <filter id="drop-shadow-3" x="96.95" y="12.58" width="146.33" height="87.33" filterUnits="userSpaceOnUse">
      <feOffset dx="1" dy="1"/>
      <feGaussianBlur result="blur-2" stdDeviation="0"/>
      <feFlood flood-color="#000" flood-opacity=".3"/>
      <feComposite in2="blur-2" operator="in"/>
      <feComposite in="SourceGraphic"/>
    </filter>
    <filter id="drop-shadow-4" x="18.67" y="22.93" width="64.53" height="68.6" filterUnits="userSpaceOnUse">
      <feOffset dx="-1" dy="1"/>
      <feGaussianBlur result="blur-3" stdDeviation="0"/>
      <feFlood flood-color="#000" flood-opacity=".3"/>
      <feComposite in2="blur-3" operator="in"/>
      <feComposite in="SourceGraphic"/>
    </filter>
  </defs>
  <polygon class="cls-1" points="18.74 8.81 249.21 4.06 259.9 40.1 251.19 110.19 10.42 107.21 4.09 39.7 18.74 8.81"/>
  <polygon class="cls-3" points="104.87 21.29 227.63 12.58 242.28 52.57 227.23 98.91 108.04 98.91 96.95 85.84 96.95 31.98 104.87 21.29"/>
  <polygon class="cls-5" points="4.6 40.26 19.26 9.38 249.38 4.63 249.21 4.06 18.74 8.81 4.09 39.7 10.42 107.21 10.89 107.22 4.6 40.26"/>
  <g class="cls-4">
    <path class="cls-2" d="M58.47,89.88c-7.8,1.95-15.68-.6-20.91-5.99l-6.35,1.59c-1.94.49-3.91-.7-4.4-2.64s.7-3.91,2.64-4.4l3.81-.95c-.48-1.1-.87-2.25-1.17-3.44l-.88-3.52-3.52.88c-1.94.49-3.91-.7-4.4-2.64s.7-3.91,2.64-4.4l3.52-.88-.88-3.52c-.3-1.2-.49-2.4-.59-3.59l-3.81.95c-1.94.49-3.91-.7-4.4-2.64-.49-1.94.7-3.91,2.64-4.4l6.35-1.59c.74-2.58,1.95-4.99,3.56-7.12l-5.44-5.44c-1.42-1.42-1.42-3.71,0-5.13,1.42-1.42,3.71-1.42,5.13,0l5.58,5.58c2.02-1.35,4.31-2.39,6.81-3.01s5-.79,7.43-.54l2.3-7.55c.58-1.92,2.61-3,4.52-2.41,1.92.58,3,2.61,2.41,4.53l-2.24,7.36c2.42,1.12,4.62,2.69,6.49,4.61l6.35-1.59c1.94-.49,3.91.7,4.4,2.64s-.7,3.91-2.64,4.4l-3.81.95c.48,1.1.87,2.25,1.17,3.44l.88,3.52,3.52-.88c1.94-.49,3.91.7,4.4,2.64s-.7,3.91-2.64,4.4l-3.52.88.88,3.52c.3,1.2.49,2.4.59,3.59l3.81-.95c1.94-.49,3.91.7,4.4,2.64s-.7,3.91-2.64,4.4l-6.35,1.59c-2.08,7.22-7.84,13.17-15.64,15.12ZM41.78,77.71c3.43,4.36,9.21,6.56,14.93,5.13,5.72-1.43,9.79-6.09,10.77-11.55.01-.08.02-.16.04-.24.3-1.88.24-3.84-.25-5.8l-3.52-14.07c-.49-1.96-1.36-3.72-2.51-5.24-.05-.06-.1-.13-.15-.19-3.43-4.36-9.21-6.56-14.93-5.13s-9.79,6.09-10.77,11.55c-.01.08-.02.16-.04.24-.3,1.88-.24,3.84.25,5.8l3.52,14.07c.49,1.96,1.36,3.72,2.51,5.24.05.06.1.13.15.19ZM57.59,71.41l-7.04,1.76c-1.94.49-3.91-.7-4.4-2.64s.7-3.91,2.64-4.4l7.04-1.76c1.94-.49,3.91.7,4.4,2.64s-.7,3.91-2.64,4.4ZM54.08,57.34l-7.04,1.76c-1.94.49-3.91-.7-4.4-2.64s.7-3.91,2.64-4.4l7.04-1.76c1.94-.49,3.91.7,4.4,2.64s-.7,3.91-2.64,4.4Z"/>
  </g>
</svg>